<svg width="1896" height="526" viewBox="0 0 1896 526" fill="none" xmlns="http://www.w3.org/2000/svg">
<g filter="url(#filter0_dd_110_45)">
<circle cx="242.5" cy="256.5" r="195.5" fill="white"/>
<circle cx="242.253" cy="254.748" r="128.944" fill="#232323"/>
<circle cx="242.5" cy="254.5" r="14.8496" fill="white"/>
<circle cx="242.5" cy="224.306" r="7.42481" fill="white"/>
<circle cx="270.219" cy="239.155" r="7.42481" fill="white"/>
<circle cx="214.781" cy="269.35" r="7.42481" fill="white"/>
<circle cx="214.781" cy="239.65" r="7.42481" fill="white"/>
<circle cx="270.219" cy="269.35" r="7.42481" fill="white"/>
<circle cx="242.5" cy="284.694" r="7.42481" fill="white"/>
<circle cx="172.954" cy="211.684" r="35.8866" fill="white"/>
<circle cx="242.253" cy="170.6" r="35.8866" fill="white"/>
<circle cx="312.046" cy="211.684" r="35.8866" fill="white"/>
<circle cx="312.541" cy="294.841" r="35.8866" fill="white"/>
<circle cx="242.253" cy="335.925" r="35.8866" fill="white"/>
<circle cx="172.954" cy="294.841" r="35.8866" fill="white"/>
<rect x="357" y="214" width="83" height="95" fill="#232323"/>
<path d="M476.46 167.8V116.5H552.08V167.8H476.46ZM476.46 392V191.36H552.08V392H476.46ZM738.663 186.8C761.97 186.8 779.45 193.26 791.103 206.18C802.756 219.1 808.583 237.72 808.583 262.04V392H732.963V271.16C732.963 262.547 730.683 255.707 726.123 250.64C721.816 245.32 715.61 242.66 707.503 242.66C698.13 242.66 690.53 245.7 684.703 251.78C678.876 257.86 675.963 265.333 675.963 274.2V392H600.343V191.36H662.283L667.223 221.76C675.076 211.12 685.336 202.633 698.003 196.3C710.923 189.967 724.476 186.8 738.663 186.8ZM957.54 186.8C994.273 186.8 1022.27 195.413 1041.52 212.64C1061.03 229.867 1070.78 256.213 1070.78 291.68V304.6H920.3C920.3 319.04 923.467 329.933 929.8 337.28C936.387 344.627 946.647 348.3 960.58 348.3C973.247 348.3 982.493 345.64 988.32 340.32C994.4 335 997.44 327.907 997.44 319.04H1070.78C1070.78 343.36 1061.53 362.36 1043.04 376.04C1024.55 389.72 997.567 396.56 962.1 396.56C924.86 396.56 895.98 387.947 875.46 370.72C854.94 353.24 844.68 326.893 844.68 291.68C844.68 257.227 854.687 231.133 874.7 213.4C894.713 195.667 922.327 186.8 957.54 186.8ZM960.58 235.06C936.767 235.06 923.467 246.333 920.68 268.88H994.4C994.4 258.493 991.36 250.26 985.28 244.18C979.453 238.1 971.22 235.06 960.58 235.06ZM1211 186.8C1243.93 186.8 1270.53 193.893 1290.8 208.08C1311.32 222.013 1321.58 243.42 1321.58 272.3H1248.24C1248.24 249.5 1235.82 238.1 1211 238.1C1186.17 238.1 1173.76 252.413 1173.76 281.04V302.7C1173.76 331.073 1186.68 345.26 1212.52 345.26C1238.36 345.26 1251.28 333.607 1251.28 310.3H1321.58C1321.58 339.433 1311.32 361.093 1290.8 375.28C1270.53 389.467 1243.93 396.56 1211 396.56C1175.78 396.56 1148.17 387.693 1128.16 369.96C1108.14 352.227 1098.14 326.133 1098.14 291.68C1098.14 257.227 1108.14 231.133 1128.16 213.4C1148.17 195.667 1175.78 186.8 1211 186.8ZM1506.25 392L1501.31 361.6C1493.46 372.493 1483.07 381.107 1470.15 387.44C1457.49 393.52 1444.06 396.56 1429.87 396.56C1406.57 396.56 1389.09 390.1 1377.43 377.18C1365.78 364.26 1359.95 345.64 1359.95 321.32V191.36H1435.57V312.2C1435.57 320.813 1437.73 327.78 1442.03 333.1C1446.59 338.167 1452.93 340.7 1461.03 340.7C1470.41 340.7 1478.01 337.66 1483.83 331.58C1489.66 325.5 1492.57 318.027 1492.57 309.16V191.36H1568.19V392H1506.25ZM1616.83 392V116.5H1692.45V392H1616.83ZM1743.37 392V116.5H1818.99V392H1743.37Z" fill="white"/>
</g>
<defs>
<filter id="filter0_dd_110_45" x="-10" y="-7" width="1916" height="546" filterUnits="userSpaceOnUse" color-interpolation-filters="sRGB">
<feFlood flood-opacity="0" result="BackgroundImageFix"/>
<feColorMatrix in="SourceAlpha" type="matrix" values="0 0 0 0 0 0 0 0 0 0 0 0 0 0 0 0 0 0 127 0" result="hardAlpha"/>
<feOffset dy="3"/>
<feGaussianBlur stdDeviation="5"/>
<feComposite in2="hardAlpha" operator="out"/>
<feColorMatrix type="matrix" values="0 0 0 0 0 0 0 0 0 0 0 0 0 0 0 0 0 0 0.19 0"/>
<feBlend mode="normal" in2="BackgroundImageFix" result="effect1_dropShadow_110_45"/>
<feColorMatrix in="SourceAlpha" type="matrix" values="0 0 0 0 0 0 0 0 0 0 0 0 0 0 0 0 0 0 127 0" result="hardAlpha"/>
<feOffset dy="4"/>
<feGaussianBlur stdDeviation="2"/>
<feComposite in2="hardAlpha" operator="out"/>
<feColorMatrix type="matrix" values="0 0 0 0 0 0 0 0 0 0 0 0 0 0 0 0 0 0 0.25 0"/>
<feBlend mode="normal" in2="effect1_dropShadow_110_45" result="effect2_dropShadow_110_45"/>
<feBlend mode="normal" in="SourceGraphic" in2="effect2_dropShadow_110_45" result="shape"/>
</filter>
</defs>
</svg>
